<mxfile host="65bd71144e">
    <diagram id="3AL5lcRK7GqpQMIHJLG4" name="Page-1">
        <mxGraphModel dx="2614" dy="1765" grid="1" gridSize="10" guides="1" tooltips="1" connect="1" arrows="1" fold="1" page="1" pageScale="1" pageWidth="850" pageHeight="1100" math="0" shadow="0">
            <root>
                <mxCell id="0"/>
                <mxCell id="1" parent="0"/>
                <mxCell id="169" style="edgeStyle=orthogonalEdgeStyle;rounded=0;orthogonalLoop=1;jettySize=auto;html=1;entryX=1;entryY=0.5;entryDx=0;entryDy=0;dashed=1;endSize=6;curved=0;strokeColor=#FF0000;strokeWidth=2;" edge="1" parent="1" source="223" target="237">
                    <mxGeometry relative="1" as="geometry">
                        <Array as="points">
                            <mxPoint x="1520" y="647"/>
                        </Array>
                    </mxGeometry>
                </mxCell>
                <mxCell id="170" style="edgeStyle=orthogonalEdgeStyle;rounded=0;orthogonalLoop=1;jettySize=auto;html=1;entryX=0.112;entryY=0.511;entryDx=0;entryDy=0;entryPerimeter=0;" edge="1" parent="1" source="252" target="312">
                    <mxGeometry relative="1" as="geometry">
                        <mxPoint x="984.8499999999999" y="601.9749999999999" as="targetPoint"/>
                        <Array as="points">
                            <mxPoint x="967" y="972.0000000000001"/>
                            <mxPoint x="967" y="597"/>
                        </Array>
                    </mxGeometry>
                </mxCell>
                <mxCell id="171" style="edgeStyle=orthogonalEdgeStyle;rounded=0;orthogonalLoop=1;jettySize=auto;html=1;" edge="1" parent="1" source="249">
                    <mxGeometry relative="1" as="geometry">
                        <mxPoint x="2175" y="602" as="targetPoint"/>
                    </mxGeometry>
                </mxCell>
                <mxCell id="172" style="edgeStyle=orthogonalEdgeStyle;rounded=0;orthogonalLoop=1;jettySize=auto;html=1;entryX=0;entryY=0.25;entryDx=0;entryDy=0;" edge="1" parent="1" source="226" target="174">
                    <mxGeometry relative="1" as="geometry">
                        <mxPoint x="2175" y="-108" as="targetPoint"/>
                        <Array as="points">
                            <mxPoint x="1777" y="431.99999999999994"/>
                            <mxPoint x="1777" y="200"/>
                            <mxPoint x="605" y="200"/>
                        </Array>
                    </mxGeometry>
                </mxCell>
                <mxCell id="173" style="edgeStyle=orthogonalEdgeStyle;rounded=0;orthogonalLoop=1;jettySize=auto;html=1;exitX=1;exitY=0;exitDx=0;exitDy=0;exitPerimeter=0;entryX=0.063;entryY=0.469;entryDx=0;entryDy=0;entryPerimeter=0;" edge="1" parent="1" source="220" target="245">
                    <mxGeometry relative="1" as="geometry">
                        <Array as="points">
                            <mxPoint x="1677" y="732"/>
                        </Array>
                    </mxGeometry>
                </mxCell>
                <mxCell id="174" value="" style="triangle;whiteSpace=wrap;html=1;rotation=90;" vertex="1" parent="1">
                    <mxGeometry x="555" y="342" width="60" height="80" as="geometry"/>
                </mxCell>
                <mxCell id="175" style="edgeStyle=orthogonalEdgeStyle;rounded=0;orthogonalLoop=1;jettySize=auto;html=1;entryX=0;entryY=0.75;entryDx=0;entryDy=0;" edge="1" parent="1" source="176" target="174">
                    <mxGeometry relative="1" as="geometry">
                        <Array as="points">
                            <mxPoint x="565" y="262"/>
                        </Array>
                    </mxGeometry>
                </mxCell>
                <mxCell id="176" value="" style="verticalLabelPosition=bottom;align=center;html=1;verticalAlign=top;pointerEvents=1;dashed=0;shape=mxgraph.pid2valves.valve;valveType=ball" vertex="1" parent="1">
                    <mxGeometry x="505" y="252" width="30" height="20" as="geometry"/>
                </mxCell>
                <mxCell id="177" style="edgeStyle=orthogonalEdgeStyle;rounded=0;orthogonalLoop=1;jettySize=auto;html=1;entryX=0.078;entryY=0.385;entryDx=0;entryDy=0;entryPerimeter=0;" edge="1" parent="1" source="174" target="311">
                    <mxGeometry relative="1" as="geometry">
                        <mxPoint x="615" y="562" as="targetPoint"/>
                        <Array as="points">
                            <mxPoint x="585" y="513"/>
                        </Array>
                    </mxGeometry>
                </mxCell>
                <mxCell id="178" style="edgeStyle=orthogonalEdgeStyle;rounded=0;orthogonalLoop=1;jettySize=auto;html=1;entryX=0.1;entryY=0.48;entryDx=0;entryDy=0;entryPerimeter=0;strokeWidth=2;" edge="1" parent="1" source="179" target="311">
                    <mxGeometry relative="1" as="geometry">
                        <mxPoint x="614.5500000000002" y="612.115" as="targetPoint"/>
                    </mxGeometry>
                </mxCell>
                <mxCell id="179" value="" style="verticalLabelPosition=bottom;align=center;html=1;verticalAlign=top;pointerEvents=1;dashed=0;shape=mxgraph.pid2valves.valve;valveType=ball" vertex="1" parent="1">
                    <mxGeometry x="505" y="602" width="30" height="20" as="geometry"/>
                </mxCell>
                <mxCell id="180" value="" style="edgeStyle=orthogonalEdgeStyle;rounded=0;orthogonalLoop=1;jettySize=auto;html=1;exitX=0.929;exitY=0.343;exitDx=0;exitDy=0;exitPerimeter=0;" edge="1" parent="1" source="312" target="222">
                    <mxGeometry relative="1" as="geometry">
                        <mxPoint x="1135" y="562" as="sourcePoint"/>
                    </mxGeometry>
                </mxCell>
                <mxCell id="181" style="edgeStyle=orthogonalEdgeStyle;rounded=0;orthogonalLoop=1;jettySize=auto;html=1;entryX=0.098;entryY=0.333;entryDx=0;entryDy=0;entryPerimeter=0;" edge="1" parent="1" source="182" target="312">
                    <mxGeometry relative="1" as="geometry">
                        <mxPoint x="977" y="560" as="targetPoint"/>
                        <Array as="points">
                            <mxPoint x="917" y="560"/>
                            <mxPoint x="917" y="560"/>
                        </Array>
                    </mxGeometry>
                </mxCell>
                <mxCell id="182" value="" style="verticalLabelPosition=bottom;align=center;html=1;verticalAlign=top;pointerEvents=1;dashed=0;shape=mxgraph.pid2valves.valve;valveType=ball" vertex="1" parent="1">
                    <mxGeometry x="855" y="552" width="30" height="20" as="geometry"/>
                </mxCell>
                <mxCell id="183" style="edgeStyle=orthogonalEdgeStyle;rounded=0;orthogonalLoop=1;jettySize=auto;html=1;entryX=0;entryY=0.5;entryDx=0;entryDy=0;entryPerimeter=0;exitX=0.928;exitY=0.507;exitDx=0;exitDy=0;exitPerimeter=0;strokeWidth=2;" edge="1" parent="1" source="311" target="182">
                    <mxGeometry relative="1" as="geometry">
                        <mxPoint x="765" y="562" as="sourcePoint"/>
                    </mxGeometry>
                </mxCell>
                <mxCell id="184" value="" style="endArrow=classic;html=1;rounded=0;entryX=-0.1;entryY=0.643;entryDx=0;entryDy=0;entryPerimeter=0;" edge="1" parent="1">
                    <mxGeometry width="50" height="50" relative="1" as="geometry">
                        <mxPoint x="375" y="262.0000000000002" as="sourcePoint"/>
                        <mxPoint x="505" y="261.71000000000026" as="targetPoint"/>
                    </mxGeometry>
                </mxCell>
                <mxCell id="185" value="" style="endArrow=classic;html=1;rounded=0;entryX=-0.1;entryY=0.643;entryDx=0;entryDy=0;entryPerimeter=0;" edge="1" parent="1">
                    <mxGeometry width="50" height="50" relative="1" as="geometry">
                        <mxPoint x="385" y="612" as="sourcePoint"/>
                        <mxPoint x="505" y="611.71" as="targetPoint"/>
                    </mxGeometry>
                </mxCell>
                <mxCell id="186" value="" style="verticalLabelPosition=bottom;align=center;html=1;verticalAlign=top;pointerEvents=1;dashed=0;shape=mxgraph.pid2valves.valve;valveType=ball" vertex="1" parent="1">
                    <mxGeometry x="807" y="489.99999999999994" width="30" height="20" as="geometry"/>
                </mxCell>
                <mxCell id="196" value="&lt;font style=&quot;font-size: 20px;&quot;&gt;TC&lt;/font&gt;" style="ellipse;whiteSpace=wrap;html=1;" vertex="1" parent="1">
                    <mxGeometry x="802" y="424.49999999999994" width="40" height="40" as="geometry"/>
                </mxCell>
                <mxCell id="197" value="&lt;span style=&quot;font-size: 20px;&quot;&gt;PC&lt;/span&gt;" style="ellipse;whiteSpace=wrap;html=1;" vertex="1" parent="1">
                    <mxGeometry x="1597" y="262" width="40" height="40" as="geometry"/>
                </mxCell>
                <mxCell id="198" value="" style="verticalLabelPosition=bottom;align=center;html=1;verticalAlign=top;pointerEvents=1;dashed=0;shape=mxgraph.pid2valves.valve;valveType=ball;rotation=-45;" vertex="1" parent="1">
                    <mxGeometry x="1442" y="290" width="30" height="20" as="geometry"/>
                </mxCell>
                <mxCell id="199" style="edgeStyle=orthogonalEdgeStyle;rounded=0;orthogonalLoop=1;jettySize=auto;html=1;entryX=0.5;entryY=1;entryDx=0;entryDy=0;strokeWidth=2;dashed=1;fillColor=#a20025;strokeColor=#FF0000;" edge="1" parent="1" source="218" target="197">
                    <mxGeometry relative="1" as="geometry"/>
                </mxCell>
                <mxCell id="200" style="edgeStyle=orthogonalEdgeStyle;rounded=0;orthogonalLoop=1;jettySize=auto;html=1;entryX=0.554;entryY=0.264;entryDx=0;entryDy=0;entryPerimeter=0;strokeWidth=2;dashed=1;fillColor=#a20025;strokeColor=#FF0000;" edge="1" parent="1" source="197" target="198">
                    <mxGeometry relative="1" as="geometry">
                        <Array as="points">
                            <mxPoint x="1552" y="282"/>
                            <mxPoint x="1552" y="250"/>
                            <mxPoint x="1437" y="250"/>
                            <mxPoint x="1437" y="295"/>
                        </Array>
                    </mxGeometry>
                </mxCell>
                <mxCell id="201" value="&lt;font style=&quot;font-size: 20px;&quot;&gt;LC&lt;/font&gt;" style="ellipse;whiteSpace=wrap;html=1;" vertex="1" parent="1">
                    <mxGeometry x="1592" y="860" width="40" height="40" as="geometry"/>
                </mxCell>
                <mxCell id="208" value="" style="edgeStyle=none;orthogonalLoop=1;jettySize=auto;html=1;rounded=0;exitX=0.5;exitY=1;exitDx=0;exitDy=0;entryX=0.505;entryY=0.165;entryDx=0;entryDy=0;entryPerimeter=0;" edge="1" parent="1" source="196" target="186">
                    <mxGeometry width="100" relative="1" as="geometry">
                        <mxPoint x="817" y="459.99999999999994" as="sourcePoint"/>
                        <mxPoint x="917" y="459.99999999999994" as="targetPoint"/>
                        <Array as="points"/>
                    </mxGeometry>
                </mxCell>
                <mxCell id="209" value="T_Rxr1 MAX" style="edgeStyle=none;orthogonalLoop=1;jettySize=auto;html=1;rounded=0;entryX=0.5;entryY=0;entryDx=0;entryDy=0;" edge="1" parent="1" target="196">
                    <mxGeometry width="100" relative="1" as="geometry">
                        <mxPoint x="767" y="380" as="sourcePoint"/>
                        <mxPoint x="867" y="340" as="targetPoint"/>
                        <Array as="points"/>
                    </mxGeometry>
                </mxCell>
                <mxCell id="214" style="edgeStyle=orthogonalEdgeStyle;rounded=0;orthogonalLoop=1;jettySize=auto;html=1;entryX=0;entryY=0.5;entryDx=0;entryDy=0;dashed=1;strokeColor=#FF0000;strokeWidth=2;" edge="1" parent="1" source="215" target="308">
                    <mxGeometry relative="1" as="geometry">
                        <Array as="points">
                            <mxPoint x="1533" y="680"/>
                            <mxPoint x="1533" y="660"/>
                        </Array>
                    </mxGeometry>
                </mxCell>
                <mxCell id="215" value="" style="verticalLabelPosition=bottom;outlineConnect=0;align=center;dashed=0;html=1;verticalAlign=top;shape=mxgraph.pid2misc.column;columnType=tray" vertex="1" parent="1">
                    <mxGeometry x="1285" y="412" width="110" height="300" as="geometry"/>
                </mxCell>
                <mxCell id="216" style="edgeStyle=orthogonalEdgeStyle;rounded=0;orthogonalLoop=1;jettySize=auto;html=1;" edge="1" parent="1" target="220">
                    <mxGeometry relative="1" as="geometry">
                        <Array as="points">
                            <mxPoint x="1565" y="752"/>
                            <mxPoint x="1565" y="752"/>
                        </Array>
                        <mxPoint x="1525.0000000000005" y="752" as="sourcePoint"/>
                    </mxGeometry>
                </mxCell>
                <mxCell id="217" style="edgeStyle=orthogonalEdgeStyle;rounded=0;orthogonalLoop=1;jettySize=auto;html=1;entryX=0.5;entryY=0;entryDx=0;entryDy=0;strokeWidth=2;dashed=1;fillColor=#a20025;strokeColor=#FF0000;" edge="1" parent="1" source="218" target="239">
                    <mxGeometry relative="1" as="geometry"/>
                </mxCell>
                <mxCell id="218" value="" style="shape=mxgraph.pid.vessels.pressurized_vessel;html=1;pointerEvents=1;align=center;verticalLabelPosition=bottom;verticalAlign=top;dashed=0;" vertex="1" parent="1">
                    <mxGeometry x="1497" y="310" width="80" height="60" as="geometry"/>
                </mxCell>
                <mxCell id="219" style="edgeStyle=orthogonalEdgeStyle;rounded=0;orthogonalLoop=1;jettySize=auto;html=1;entryX=0.124;entryY=0.5;entryDx=0;entryDy=0;entryPerimeter=0;" edge="1" parent="1" source="215" target="233">
                    <mxGeometry relative="1" as="geometry">
                        <mxPoint x="1387" y="300" as="targetPoint"/>
                        <Array as="points">
                            <mxPoint x="1340" y="340"/>
                        </Array>
                    </mxGeometry>
                </mxCell>
                <mxCell id="220" value="" style="verticalLabelPosition=bottom;outlineConnect=0;align=center;dashed=0;html=1;verticalAlign=top;shape=mxgraph.pid.compressors.centrifugal_compressor" vertex="1" parent="1">
                    <mxGeometry x="1585" y="732" width="40" height="40" as="geometry"/>
                </mxCell>
                <mxCell id="221" style="edgeStyle=orthogonalEdgeStyle;rounded=0;orthogonalLoop=1;jettySize=auto;html=1;" edge="1" parent="1" source="222" target="215">
                    <mxGeometry relative="1" as="geometry"/>
                </mxCell>
                <mxCell id="222" value="" style="verticalLabelPosition=bottom;align=center;html=1;verticalAlign=top;pointerEvents=1;dashed=0;shape=mxgraph.pid2valves.valve;valveType=ball" vertex="1" parent="1">
                    <mxGeometry x="1215" y="552" width="30" height="20" as="geometry"/>
                </mxCell>
                <mxCell id="223" value="" style="shape=mxgraph.pid.heat_exchangers.reboiler;html=1;pointerEvents=1;align=center;verticalLabelPosition=bottom;verticalAlign=top;dashed=0;" vertex="1" parent="1">
                    <mxGeometry x="1447" y="727" width="110" height="50" as="geometry"/>
                </mxCell>
                <mxCell id="224" value="" style="verticalLabelPosition=bottom;outlineConnect=0;align=center;dashed=0;html=1;verticalAlign=top;shape=mxgraph.pid.compressors.centrifugal_compressor;rotation=90;" vertex="1" parent="1">
                    <mxGeometry x="1527" y="392" width="30" height="30" as="geometry"/>
                </mxCell>
                <mxCell id="225" value="" style="verticalLabelPosition=bottom;align=center;html=1;verticalAlign=top;pointerEvents=1;dashed=0;shape=mxgraph.pid2valves.valve;valveType=ball" vertex="1" parent="1">
                    <mxGeometry x="1434" y="422" width="30" height="20" as="geometry"/>
                </mxCell>
                <mxCell id="226" value="" style="verticalLabelPosition=bottom;align=center;html=1;verticalAlign=top;pointerEvents=1;dashed=0;shape=mxgraph.pid2valves.valve;valveType=ball" vertex="1" parent="1">
                    <mxGeometry x="1595" y="422" width="30" height="20" as="geometry"/>
                </mxCell>
                <mxCell id="227" value="" style="endArrow=classic;html=1;rounded=0;exitX=-0.014;exitY=0.443;exitDx=0;exitDy=0;exitPerimeter=0;" edge="1" parent="1" source="225">
                    <mxGeometry width="50" height="50" relative="1" as="geometry">
                        <mxPoint x="1422.3" y="431.15000000000003" as="sourcePoint"/>
                        <mxPoint x="1395.0000000000005" y="430.86000000000007" as="targetPoint"/>
                    </mxGeometry>
                </mxCell>
                <mxCell id="228" style="edgeStyle=orthogonalEdgeStyle;rounded=0;orthogonalLoop=1;jettySize=auto;html=1;entryX=0.993;entryY=0.5;entryDx=0;entryDy=0;entryPerimeter=0;exitX=1;exitY=0;exitDx=0;exitDy=0;exitPerimeter=0;" edge="1" parent="1" source="224" target="225">
                    <mxGeometry relative="1" as="geometry">
                        <mxPoint x="1625" y="461.99999999999994" as="targetPoint"/>
                        <mxPoint x="1535" y="431.99999999999994" as="sourcePoint"/>
                        <Array as="points">
                            <mxPoint x="1557" y="431.99999999999994"/>
                        </Array>
                    </mxGeometry>
                </mxCell>
                <mxCell id="229" value="" style="endArrow=classic;html=1;rounded=0;entryX=-0.012;entryY=0.504;entryDx=0;entryDy=0;entryPerimeter=0;" edge="1" parent="1" target="226">
                    <mxGeometry width="50" height="50" relative="1" as="geometry">
                        <mxPoint x="1545.0000000000005" y="431.99999999999994" as="sourcePoint"/>
                        <mxPoint x="1685" y="461.99999999999994" as="targetPoint"/>
                    </mxGeometry>
                </mxCell>
                <mxCell id="230" style="edgeStyle=orthogonalEdgeStyle;rounded=0;orthogonalLoop=1;jettySize=auto;html=1;entryX=0.01;entryY=0.5;entryDx=0;entryDy=0;entryPerimeter=0;" edge="1" parent="1" target="224">
                    <mxGeometry relative="1" as="geometry">
                        <mxPoint x="1542" y="372.0000000000002" as="sourcePoint"/>
                        <Array as="points">
                            <mxPoint x="1542" y="382"/>
                            <mxPoint x="1542" y="382"/>
                        </Array>
                    </mxGeometry>
                </mxCell>
                <mxCell id="233" value="" style="shape=mxgraph.pid.heat_exchangers.condenser;html=1;pointerEvents=1;align=center;verticalLabelPosition=bottom;verticalAlign=top;dashed=0;movable=1;resizable=1;rotatable=1;deletable=1;editable=1;locked=0;connectable=1;" vertex="1" parent="1">
                    <mxGeometry x="1387" y="310" width="60" height="60" as="geometry"/>
                </mxCell>
                <mxCell id="234" style="edgeStyle=orthogonalEdgeStyle;rounded=0;orthogonalLoop=1;jettySize=auto;html=1;entryX=-0.021;entryY=0.494;entryDx=0;entryDy=0;entryPerimeter=0;strokeWidth=2;" edge="1" parent="1" source="233" target="218">
                    <mxGeometry relative="1" as="geometry"/>
                </mxCell>
                <mxCell id="235" value="&lt;font style=&quot;font-size: 20px;&quot;&gt;FC&lt;/font&gt;" style="ellipse;whiteSpace=wrap;html=1;" vertex="1" parent="1">
                    <mxGeometry x="1429" y="360" width="40" height="40" as="geometry"/>
                </mxCell>
                <mxCell id="236" value="" style="shape=mxgraph.pid.heat_exchangers.heater;html=1;pointerEvents=1;align=center;verticalLabelPosition=bottom;verticalAlign=top;dashed=0;" vertex="1" parent="1">
                    <mxGeometry x="1357" y="732" width="60" height="60" as="geometry"/>
                </mxCell>
                <mxCell id="237" value="&lt;font style=&quot;font-size: 20px;&quot;&gt;FC&lt;/font&gt;" style="ellipse;whiteSpace=wrap;html=1;" vertex="1" parent="1">
                    <mxGeometry x="1437" y="627" width="40" height="40" as="geometry"/>
                </mxCell>
                <mxCell id="238" value="" style="verticalLabelPosition=bottom;align=center;html=1;verticalAlign=top;pointerEvents=1;dashed=0;shape=mxgraph.pid2valves.valve;valveType=ball;rotation=0;" vertex="1" parent="1">
                    <mxGeometry x="1402" y="720" width="30" height="20" as="geometry"/>
                </mxCell>
                <mxCell id="239" value="&lt;span style=&quot;font-size: 20px;&quot;&gt;LC&lt;/span&gt;" style="ellipse;whiteSpace=wrap;html=1;" vertex="1" parent="1">
                    <mxGeometry x="1590" y="360" width="40" height="40" as="geometry"/>
                </mxCell>
                <mxCell id="240" style="edgeStyle=orthogonalEdgeStyle;rounded=0;orthogonalLoop=1;jettySize=auto;html=1;entryX=0.507;entryY=0.26;entryDx=0;entryDy=0;entryPerimeter=0;strokeWidth=2;dashed=1;fillColor=#a20025;strokeColor=#FF0000;" edge="1" parent="1" source="239" target="226">
                    <mxGeometry relative="1" as="geometry"/>
                </mxCell>
                <mxCell id="241" style="edgeStyle=orthogonalEdgeStyle;rounded=0;orthogonalLoop=1;jettySize=auto;html=1;entryX=0.513;entryY=0.2;entryDx=0;entryDy=0;entryPerimeter=0;" edge="1" parent="1" source="235" target="225">
                    <mxGeometry relative="1" as="geometry"/>
                </mxCell>
                <mxCell id="242" value="" style="verticalLabelPosition=bottom;outlineConnect=0;align=center;dashed=0;html=1;verticalAlign=top;shape=mxgraph.pid2misc.column;columnType=tray" vertex="1" parent="1">
                    <mxGeometry x="1745" y="582" width="110" height="300" as="geometry"/>
                </mxCell>
                <mxCell id="243" style="edgeStyle=orthogonalEdgeStyle;rounded=0;orthogonalLoop=1;jettySize=auto;html=1;exitX=1;exitY=0;exitDx=0;exitDy=0;exitPerimeter=0;entryX=1;entryY=0.6;entryDx=0;entryDy=0;entryPerimeter=0;" edge="1" parent="1" target="252">
                    <mxGeometry relative="1" as="geometry">
                        <mxPoint x="1531" y="972.0000000000001" as="targetPoint"/>
                        <mxPoint x="2085" y="902" as="sourcePoint"/>
                        <Array as="points">
                            <mxPoint x="2085" y="900"/>
                            <mxPoint x="2107" y="900"/>
                            <mxPoint x="2107" y="1020.0000000000001"/>
                            <mxPoint x="1727" y="1020.0000000000001"/>
                            <mxPoint x="1727" y="972.0000000000001"/>
                        </Array>
                    </mxGeometry>
                </mxCell>
                <mxCell id="244" style="edgeStyle=orthogonalEdgeStyle;rounded=0;orthogonalLoop=1;jettySize=auto;html=1;" edge="1" parent="1" source="245" target="242">
                    <mxGeometry relative="1" as="geometry"/>
                </mxCell>
                <mxCell id="245" value="" style="verticalLabelPosition=bottom;align=center;html=1;verticalAlign=top;pointerEvents=1;dashed=0;shape=mxgraph.pid2valves.valve;valveType=ball" vertex="1" parent="1">
                    <mxGeometry x="1675" y="722" width="30" height="20" as="geometry"/>
                </mxCell>
                <mxCell id="246" value="" style="verticalLabelPosition=bottom;outlineConnect=0;align=center;dashed=0;html=1;verticalAlign=top;shape=mxgraph.pid.compressors.centrifugal_compressor;rotation=90;" vertex="1" parent="1">
                    <mxGeometry x="1975" y="562" width="30" height="30" as="geometry"/>
                </mxCell>
                <mxCell id="247" style="edgeStyle=orthogonalEdgeStyle;rounded=0;orthogonalLoop=1;jettySize=auto;html=1;strokeWidth=2;" edge="1" parent="1" source="248" target="242">
                    <mxGeometry relative="1" as="geometry">
                        <Array as="points">
                            <mxPoint x="1877" y="602"/>
                            <mxPoint x="1877" y="602"/>
                        </Array>
                    </mxGeometry>
                </mxCell>
                <mxCell id="248" value="" style="verticalLabelPosition=bottom;align=center;html=1;verticalAlign=top;pointerEvents=1;dashed=0;shape=mxgraph.pid2valves.valve;valveType=ball" vertex="1" parent="1">
                    <mxGeometry x="1894" y="592" width="30" height="20" as="geometry"/>
                </mxCell>
                <mxCell id="249" value="" style="verticalLabelPosition=bottom;align=center;html=1;verticalAlign=top;pointerEvents=1;dashed=0;shape=mxgraph.pid2valves.valve;valveType=ball" vertex="1" parent="1">
                    <mxGeometry x="2065" y="592" width="30" height="20" as="geometry"/>
                </mxCell>
                <mxCell id="250" style="edgeStyle=orthogonalEdgeStyle;rounded=0;orthogonalLoop=1;jettySize=auto;html=1;entryX=0.993;entryY=0.5;entryDx=0;entryDy=0;entryPerimeter=0;exitX=1;exitY=0;exitDx=0;exitDy=0;exitPerimeter=0;" edge="1" parent="1" source="246" target="248">
                    <mxGeometry relative="1" as="geometry">
                        <mxPoint x="2085" y="632" as="targetPoint"/>
                        <mxPoint x="1995" y="602" as="sourcePoint"/>
                        <Array as="points">
                            <mxPoint x="2005" y="602"/>
                        </Array>
                    </mxGeometry>
                </mxCell>
                <mxCell id="251" value="" style="endArrow=classic;html=1;rounded=0;entryX=-0.012;entryY=0.504;entryDx=0;entryDy=0;entryPerimeter=0;" edge="1" parent="1" target="249">
                    <mxGeometry width="50" height="50" relative="1" as="geometry">
                        <mxPoint x="2005.0000000000005" y="602" as="sourcePoint"/>
                        <mxPoint x="2145" y="632" as="targetPoint"/>
                    </mxGeometry>
                </mxCell>
                <mxCell id="252" value="" style="verticalLabelPosition=bottom;align=center;html=1;verticalAlign=top;pointerEvents=1;dashed=0;shape=mxgraph.pid2valves.valve;valveType=ball" vertex="1" parent="1">
                    <mxGeometry x="1597" y="960.0000000000001" width="30" height="20" as="geometry"/>
                </mxCell>
                <mxCell id="253" style="edgeStyle=orthogonalEdgeStyle;rounded=0;orthogonalLoop=1;jettySize=auto;html=1;" edge="1" parent="1" target="254">
                    <mxGeometry relative="1" as="geometry">
                        <Array as="points">
                            <mxPoint x="2035" y="918"/>
                            <mxPoint x="2035" y="918"/>
                        </Array>
                        <mxPoint x="1995.0000000000005" y="918" as="sourcePoint"/>
                    </mxGeometry>
                </mxCell>
                <mxCell id="254" value="" style="verticalLabelPosition=bottom;outlineConnect=0;align=center;dashed=0;html=1;verticalAlign=top;shape=mxgraph.pid.compressors.centrifugal_compressor" vertex="1" parent="1">
                    <mxGeometry x="2055" y="898" width="40" height="40" as="geometry"/>
                </mxCell>
                <mxCell id="255" style="edgeStyle=orthogonalEdgeStyle;rounded=0;orthogonalLoop=1;jettySize=auto;html=1;exitX=0.45;exitY=0;exitDx=0;exitDy=0;exitPerimeter=0;" edge="1" parent="1" source="256" target="242">
                    <mxGeometry relative="1" as="geometry">
                        <Array as="points">
                            <mxPoint x="1967" y="840"/>
                        </Array>
                    </mxGeometry>
                </mxCell>
                <mxCell id="256" value="" style="shape=mxgraph.pid.heat_exchangers.reboiler;html=1;pointerEvents=1;align=center;verticalLabelPosition=bottom;verticalAlign=top;dashed=0;" vertex="1" parent="1">
                    <mxGeometry x="1917" y="893" width="110" height="50" as="geometry"/>
                </mxCell>
                <mxCell id="257" style="edgeStyle=orthogonalEdgeStyle;rounded=0;orthogonalLoop=1;jettySize=auto;html=1;entryX=0;entryY=0.682;entryDx=0;entryDy=0;entryPerimeter=0;exitX=0.876;exitY=0.5;exitDx=0;exitDy=0;exitPerimeter=0;" edge="1" parent="1" target="256">
                    <mxGeometry relative="1" as="geometry">
                        <mxPoint x="1905" y="1056" as="targetPoint"/>
                        <mxPoint x="1879.56" y="927.9999999999995" as="sourcePoint"/>
                        <Array as="points">
                            <mxPoint x="1880" y="927"/>
                        </Array>
                    </mxGeometry>
                </mxCell>
                <mxCell id="258" value="" style="verticalLabelPosition=bottom;align=center;html=1;verticalAlign=top;pointerEvents=1;dashed=0;shape=mxgraph.pid2valves.valve;valveType=ball;rotation=0;" vertex="1" parent="1">
                    <mxGeometry x="1867" y="882" width="30" height="20" as="geometry"/>
                </mxCell>
                <mxCell id="259" value="" style="shape=mxgraph.pid.heat_exchangers.heater;html=1;pointerEvents=1;align=center;verticalLabelPosition=bottom;verticalAlign=top;dashed=0;" vertex="1" parent="1">
                    <mxGeometry x="1827" y="898" width="60" height="60" as="geometry"/>
                </mxCell>
                <mxCell id="260" style="edgeStyle=orthogonalEdgeStyle;rounded=0;orthogonalLoop=1;jettySize=auto;html=1;entryX=0.124;entryY=0.5;entryDx=0;entryDy=0;entryPerimeter=0;" edge="1" parent="1" target="259">
                    <mxGeometry relative="1" as="geometry">
                        <mxPoint x="1800.0000000000005" y="870" as="sourcePoint"/>
                        <Array as="points">
                            <mxPoint x="1800" y="928"/>
                        </Array>
                    </mxGeometry>
                </mxCell>
                <mxCell id="265" value="" style="shape=mxgraph.pid.vessels.pressurized_vessel;html=1;pointerEvents=1;align=center;verticalLabelPosition=bottom;verticalAlign=top;dashed=0;" vertex="1" parent="1">
                    <mxGeometry x="1947" y="479.99999999999994" width="80" height="60" as="geometry"/>
                </mxCell>
                <mxCell id="266" style="edgeStyle=orthogonalEdgeStyle;rounded=0;orthogonalLoop=1;jettySize=auto;html=1;" edge="1" parent="1">
                    <mxGeometry relative="1" as="geometry">
                        <mxPoint x="1992" y="540" as="sourcePoint"/>
                        <Array as="points">
                            <mxPoint x="1992" y="562"/>
                        </Array>
                        <mxPoint x="1992" y="562" as="targetPoint"/>
                    </mxGeometry>
                </mxCell>
                <mxCell id="267" value="" style="shape=mxgraph.pid.heat_exchangers.condenser;html=1;pointerEvents=1;align=center;verticalLabelPosition=bottom;verticalAlign=top;dashed=0;movable=1;resizable=1;rotatable=1;deletable=1;editable=1;locked=0;connectable=1;" vertex="1" parent="1">
                    <mxGeometry x="1837" y="479.99999999999994" width="60" height="60" as="geometry"/>
                </mxCell>
                <mxCell id="268" style="edgeStyle=orthogonalEdgeStyle;rounded=0;orthogonalLoop=1;jettySize=auto;html=1;entryX=-0.021;entryY=0.494;entryDx=0;entryDy=0;entryPerimeter=0;" edge="1" parent="1" source="267" target="265">
                    <mxGeometry relative="1" as="geometry"/>
                </mxCell>
                <mxCell id="269" value="&lt;span style=&quot;font-size: 20px;&quot;&gt;PC&lt;/span&gt;" style="ellipse;whiteSpace=wrap;html=1;" vertex="1" parent="1">
                    <mxGeometry x="2047" y="429.99999999999994" width="40" height="40" as="geometry"/>
                </mxCell>
                <mxCell id="270" value="" style="verticalLabelPosition=bottom;align=center;html=1;verticalAlign=top;pointerEvents=1;dashed=0;shape=mxgraph.pid2valves.valve;valveType=ball;rotation=-45;" vertex="1" parent="1">
                    <mxGeometry x="1897" y="459.99999999999994" width="30" height="20" as="geometry"/>
                </mxCell>
                <mxCell id="271" style="edgeStyle=orthogonalEdgeStyle;rounded=0;orthogonalLoop=1;jettySize=auto;html=1;entryX=0.124;entryY=0.5;entryDx=0;entryDy=0;entryPerimeter=0;" edge="1" parent="1" source="242" target="267">
                    <mxGeometry relative="1" as="geometry">
                        <Array as="points">
                            <mxPoint x="1800" y="509.99999999999994"/>
                        </Array>
                    </mxGeometry>
                </mxCell>
                <mxCell id="272" value="&lt;span style=&quot;font-size: 20px;&quot;&gt;LC&lt;/span&gt;" style="ellipse;whiteSpace=wrap;html=1;" vertex="1" parent="1">
                    <mxGeometry x="2060" y="522" width="40" height="40" as="geometry"/>
                </mxCell>
                <mxCell id="273" style="edgeStyle=orthogonalEdgeStyle;rounded=0;orthogonalLoop=1;jettySize=auto;html=1;entryX=0.484;entryY=0.061;entryDx=0;entryDy=0;entryPerimeter=0;" edge="1" parent="1" source="308" target="245">
                    <mxGeometry relative="1" as="geometry">
                        <Array as="points"/>
                    </mxGeometry>
                </mxCell>
                <mxCell id="278" style="edgeStyle=orthogonalEdgeStyle;rounded=0;orthogonalLoop=1;jettySize=auto;html=1;entryX=0;entryY=0.5;entryDx=0;entryDy=0;dashed=1;strokeColor=#FF0000;strokeWidth=2;" edge="1" parent="1" source="265" target="272">
                    <mxGeometry relative="1" as="geometry"/>
                </mxCell>
                <mxCell id="279" style="edgeStyle=orthogonalEdgeStyle;rounded=0;orthogonalLoop=1;jettySize=auto;html=1;entryX=0.5;entryY=1;entryDx=0;entryDy=0;dashed=1;strokeColor=#FF0000;strokeWidth=2;" edge="1" parent="1" source="265" target="269">
                    <mxGeometry relative="1" as="geometry"/>
                </mxCell>
                <mxCell id="280" style="edgeStyle=orthogonalEdgeStyle;rounded=0;orthogonalLoop=1;jettySize=auto;html=1;entryX=0.5;entryY=0;entryDx=0;entryDy=0;entryPerimeter=0;dashed=1;strokeColor=#FF0000;strokeWidth=2;" edge="1" parent="1" source="269" target="270">
                    <mxGeometry relative="1" as="geometry">
                        <Array as="points">
                            <mxPoint x="2067" y="420"/>
                            <mxPoint x="1887" y="420"/>
                            <mxPoint x="1887" y="462.99999999999994"/>
                        </Array>
                    </mxGeometry>
                </mxCell>
                <mxCell id="281" style="edgeStyle=orthogonalEdgeStyle;rounded=0;orthogonalLoop=1;jettySize=auto;html=1;entryX=0.492;entryY=0.25;entryDx=0;entryDy=0;entryPerimeter=0;dashed=1;strokeColor=#FF0000;strokeWidth=2;" edge="1" parent="1" source="272" target="249">
                    <mxGeometry relative="1" as="geometry"/>
                </mxCell>
                <mxCell id="283" style="edgeStyle=orthogonalEdgeStyle;rounded=0;orthogonalLoop=1;jettySize=auto;html=1;entryX=0;entryY=0.5;entryDx=0;entryDy=0;exitX=0.73;exitY=0.212;exitDx=0;exitDy=0;exitPerimeter=0;dashed=1;endSize=6;curved=0;strokeColor=#FF0000;strokeWidth=2;" edge="1" parent="1" source="311" target="196">
                    <mxGeometry relative="1" as="geometry">
                        <Array as="points">
                            <mxPoint x="710" y="444.99999999999994"/>
                            <mxPoint x="747" y="444.99999999999994"/>
                        </Array>
                        <mxPoint x="746.5500000000002" y="531.385" as="sourcePoint"/>
                    </mxGeometry>
                </mxCell>
                <mxCell id="287" style="edgeStyle=orthogonalEdgeStyle;rounded=0;orthogonalLoop=1;jettySize=auto;html=1;entryX=1.031;entryY=0.797;entryDx=0;entryDy=0;entryPerimeter=0;endSize=6;curved=0;strokeWidth=2;" edge="1" parent="1" source="186" target="311">
                    <mxGeometry relative="1" as="geometry">
                        <mxPoint x="768.3000000000002" y="539.5749999999998" as="targetPoint"/>
                    </mxGeometry>
                </mxCell>
                <mxCell id="288" value="" style="endArrow=classic;html=1;rounded=0;endSize=6;curved=0;strokeWidth=2;entryX=1.059;entryY=0.556;entryDx=0;entryDy=0;entryPerimeter=0;" edge="1" parent="1" target="186">
                    <mxGeometry width="50" height="50" relative="1" as="geometry">
                        <mxPoint x="870" y="501" as="sourcePoint"/>
                        <mxPoint x="837" y="491.99999999999994" as="targetPoint"/>
                    </mxGeometry>
                </mxCell>
                <mxCell id="291" style="edgeStyle=orthogonalEdgeStyle;rounded=0;orthogonalLoop=1;jettySize=auto;html=1;dashed=1;endSize=6;curved=0;strokeColor=#FF0000;strokeWidth=2;" edge="1" parent="1" source="201" target="252">
                    <mxGeometry relative="1" as="geometry"/>
                </mxCell>
                <mxCell id="297" value="" style="endArrow=classic;html=1;rounded=0;exitX=0.45;exitY=0;exitDx=0;exitDy=0;exitPerimeter=0;endSize=6;curved=0;strokeWidth=2;" edge="1" parent="1" source="223">
                    <mxGeometry width="50" height="50" relative="1" as="geometry">
                        <mxPoint x="1485" y="722" as="sourcePoint"/>
                        <mxPoint x="1395.0000000000005" y="693.27" as="targetPoint"/>
                        <Array as="points">
                            <mxPoint x="1497" y="692"/>
                        </Array>
                    </mxGeometry>
                </mxCell>
                <mxCell id="299" style="edgeStyle=orthogonalEdgeStyle;rounded=0;orthogonalLoop=1;jettySize=auto;html=1;entryX=0;entryY=0.682;entryDx=0;entryDy=0;entryPerimeter=0;exitX=0.876;exitY=0.5;exitDx=0;exitDy=0;exitPerimeter=0;endSize=6;curved=0;" edge="1" parent="1" target="223">
                    <mxGeometry relative="1" as="geometry">
                        <mxPoint x="1435" y="890" as="targetPoint"/>
                        <mxPoint x="1409.56" y="762" as="sourcePoint"/>
                        <Array as="points">
                            <mxPoint x="1410" y="761"/>
                        </Array>
                    </mxGeometry>
                </mxCell>
                <mxCell id="300" style="edgeStyle=orthogonalEdgeStyle;rounded=0;orthogonalLoop=1;jettySize=auto;html=1;entryX=0.124;entryY=0.5;entryDx=0;entryDy=0;entryPerimeter=0;endSize=6;curved=0;" edge="1" parent="1" source="215">
                    <mxGeometry relative="1" as="geometry">
                        <mxPoint x="1364.44" y="762" as="targetPoint"/>
                        <Array as="points">
                            <mxPoint x="1340" y="762"/>
                        </Array>
                    </mxGeometry>
                </mxCell>
                <mxCell id="301" style="edgeStyle=orthogonalEdgeStyle;rounded=0;orthogonalLoop=1;jettySize=auto;html=1;entryX=0.5;entryY=0.298;entryDx=0;entryDy=0;entryPerimeter=0;dashed=1;endSize=6;curved=0;strokeColor=#FF0000;strokeWidth=2;" edge="1" parent="1" source="237" target="238">
                    <mxGeometry relative="1" as="geometry"/>
                </mxCell>
                <mxCell id="303" style="edgeStyle=orthogonalEdgeStyle;rounded=0;orthogonalLoop=1;jettySize=auto;html=1;dashed=1;endSize=6;curved=0;strokeColor=#FF0000;strokeWidth=2;" edge="1" parent="1" source="242">
                    <mxGeometry relative="1" as="geometry">
                        <mxPoint x="1637" y="880" as="targetPoint"/>
                        <Array as="points">
                            <mxPoint x="1692" y="860"/>
                            <mxPoint x="1692" y="880"/>
                        </Array>
                    </mxGeometry>
                </mxCell>
                <mxCell id="308" value="&lt;font style=&quot;font-size: 20px;&quot;&gt;LC&lt;/font&gt;" style="ellipse;whiteSpace=wrap;html=1;" vertex="1" parent="1">
                    <mxGeometry x="1670" y="640" width="40" height="40" as="geometry"/>
                </mxCell>
                <mxCell id="311" value="" style="shape=mxgraph.pid.vessels.jacketed_mixing_vessel;html=1;pointerEvents=1;align=center;verticalLabelPosition=bottom;verticalAlign=top;dashed=0;" vertex="1" parent="1">
                    <mxGeometry x="615" y="431.99999999999994" width="130" height="210" as="geometry"/>
                </mxCell>
                <mxCell id="312" value="" style="shape=mxgraph.pid.vessels.jacketed_mixing_vessel;html=1;pointerEvents=1;align=center;verticalLabelPosition=bottom;verticalAlign=top;dashed=0;" vertex="1" parent="1">
                    <mxGeometry x="997" y="489.99999999999994" width="130" height="210" as="geometry"/>
                </mxCell>
                <mxCell id="313" value="" style="endArrow=classic;html=1;rounded=0;entryX=-0.1;entryY=0.643;entryDx=0;entryDy=0;entryPerimeter=0;strokeWidth=2;" edge="1" parent="1">
                    <mxGeometry width="50" height="50" relative="1" as="geometry">
                        <mxPoint x="375" y="261.97" as="sourcePoint"/>
                        <mxPoint x="505" y="261.68000000000006" as="targetPoint"/>
                    </mxGeometry>
                </mxCell>
                <mxCell id="314" style="edgeStyle=orthogonalEdgeStyle;rounded=0;orthogonalLoop=1;jettySize=auto;html=1;entryX=0;entryY=0.75;entryDx=0;entryDy=0;strokeWidth=2;" edge="1" parent="1">
                    <mxGeometry relative="1" as="geometry">
                        <Array as="points">
                            <mxPoint x="565" y="261.97"/>
                        </Array>
                        <mxPoint x="535" y="262.0044827586207" as="sourcePoint"/>
                        <mxPoint x="564.9999999999995" y="351.97" as="targetPoint"/>
                    </mxGeometry>
                </mxCell>
                <mxCell id="315" value="" style="endArrow=classic;html=1;rounded=0;entryX=-0.1;entryY=0.643;entryDx=0;entryDy=0;entryPerimeter=0;strokeWidth=2;" edge="1" parent="1">
                    <mxGeometry width="50" height="50" relative="1" as="geometry">
                        <mxPoint x="385" y="611.9700000000003" as="sourcePoint"/>
                        <mxPoint x="505" y="611.6800000000003" as="targetPoint"/>
                    </mxGeometry>
                </mxCell>
                <mxCell id="317" style="edgeStyle=orthogonalEdgeStyle;rounded=0;orthogonalLoop=1;jettySize=auto;html=1;entryX=0.078;entryY=0.385;entryDx=0;entryDy=0;entryPerimeter=0;strokeWidth=2;" edge="1" parent="1">
                    <mxGeometry relative="1" as="geometry">
                        <mxPoint x="584.9999999999995" y="411.97" as="sourcePoint"/>
                        <mxPoint x="625.1400000000003" y="512.8200000000002" as="targetPoint"/>
                        <Array as="points">
                            <mxPoint x="585" y="512.97"/>
                        </Array>
                    </mxGeometry>
                </mxCell>
                <mxCell id="318" style="edgeStyle=orthogonalEdgeStyle;rounded=0;orthogonalLoop=1;jettySize=auto;html=1;entryX=0;entryY=0.25;entryDx=0;entryDy=0;strokeWidth=2;" edge="1" parent="1">
                    <mxGeometry relative="1" as="geometry">
                        <mxPoint x="604.9999999999995" y="351.97" as="targetPoint"/>
                        <Array as="points">
                            <mxPoint x="1777" y="431.96999999999997"/>
                            <mxPoint x="1777" y="199.97000000000003"/>
                            <mxPoint x="605" y="199.97000000000003"/>
                        </Array>
                        <mxPoint x="1625.0000000000005" y="432.00448275862067" as="sourcePoint"/>
                    </mxGeometry>
                </mxCell>
                <mxCell id="320" style="edgeStyle=orthogonalEdgeStyle;rounded=0;orthogonalLoop=1;jettySize=auto;html=1;entryX=0.098;entryY=0.333;entryDx=0;entryDy=0;entryPerimeter=0;strokeWidth=2;" edge="1" parent="1">
                    <mxGeometry relative="1" as="geometry">
                        <mxPoint x="1009.7400000000002" y="559.8999999999996" as="targetPoint"/>
                        <mxPoint x="884.9999999999995" y="560.0044827586207" as="sourcePoint"/>
                        <Array as="points">
                            <mxPoint x="917" y="559.97"/>
                            <mxPoint x="917" y="559.97"/>
                        </Array>
                    </mxGeometry>
                </mxCell>
                <mxCell id="321" style="edgeStyle=orthogonalEdgeStyle;rounded=0;orthogonalLoop=1;jettySize=auto;html=1;entryX=0.112;entryY=0.511;entryDx=0;entryDy=0;entryPerimeter=0;strokeWidth=2;" edge="1" parent="1">
                    <mxGeometry relative="1" as="geometry">
                        <mxPoint x="1011.5600000000004" y="597.2799999999997" as="targetPoint"/>
                        <Array as="points">
                            <mxPoint x="967" y="971.9700000000001"/>
                            <mxPoint x="967" y="596.97"/>
                        </Array>
                        <mxPoint x="1597" y="972.0044827586208" as="sourcePoint"/>
                    </mxGeometry>
                </mxCell>
                <mxCell id="322" value="" style="edgeStyle=orthogonalEdgeStyle;rounded=0;orthogonalLoop=1;jettySize=auto;html=1;exitX=0.929;exitY=0.343;exitDx=0;exitDy=0;exitPerimeter=0;strokeWidth=2;" edge="1" parent="1">
                    <mxGeometry relative="1" as="geometry">
                        <mxPoint x="1117.77" y="562" as="sourcePoint"/>
                        <mxPoint x="1215.0000000000005" y="562" as="targetPoint"/>
                    </mxGeometry>
                </mxCell>
                <mxCell id="323" style="edgeStyle=orthogonalEdgeStyle;rounded=0;orthogonalLoop=1;jettySize=auto;html=1;strokeWidth=2;" edge="1" parent="1">
                    <mxGeometry relative="1" as="geometry">
                        <mxPoint x="1245.0000000000005" y="561.9700000000003" as="sourcePoint"/>
                        <mxPoint x="1285.0000000000005" y="561.9700000000003" as="targetPoint"/>
                    </mxGeometry>
                </mxCell>
                <mxCell id="324" style="edgeStyle=orthogonalEdgeStyle;rounded=0;orthogonalLoop=1;jettySize=auto;html=1;exitX=1;exitY=0;exitDx=0;exitDy=0;exitPerimeter=0;entryX=1;entryY=0.6;entryDx=0;entryDy=0;entryPerimeter=0;strokeWidth=2;" edge="1" parent="1">
                    <mxGeometry relative="1" as="geometry">
                        <mxPoint x="1627" y="971.9700000000004" as="targetPoint"/>
                        <mxPoint x="2085" y="901.9700000000003" as="sourcePoint"/>
                        <Array as="points">
                            <mxPoint x="2085" y="899.97"/>
                            <mxPoint x="2107" y="899.97"/>
                            <mxPoint x="2107" y="1019.9700000000001"/>
                            <mxPoint x="1727" y="1019.9700000000001"/>
                            <mxPoint x="1727" y="971.9700000000001"/>
                        </Array>
                    </mxGeometry>
                </mxCell>
                <mxCell id="325" style="edgeStyle=orthogonalEdgeStyle;rounded=0;orthogonalLoop=1;jettySize=auto;html=1;entryX=0.124;entryY=0.5;entryDx=0;entryDy=0;entryPerimeter=0;strokeWidth=2;" edge="1" parent="1">
                    <mxGeometry relative="1" as="geometry">
                        <mxPoint x="1800.0000000000005" y="869.9700000000003" as="sourcePoint"/>
                        <Array as="points">
                            <mxPoint x="1800" y="927.97"/>
                        </Array>
                        <mxPoint x="1834.44" y="927.9699999999998" as="targetPoint"/>
                    </mxGeometry>
                </mxCell>
                <mxCell id="326" style="edgeStyle=orthogonalEdgeStyle;rounded=0;orthogonalLoop=1;jettySize=auto;html=1;entryX=0;entryY=0.682;entryDx=0;entryDy=0;entryPerimeter=0;exitX=0.876;exitY=0.5;exitDx=0;exitDy=0;exitPerimeter=0;strokeWidth=2;" edge="1" parent="1">
                    <mxGeometry relative="1" as="geometry">
                        <mxPoint x="1917" y="927.0699999999997" as="targetPoint"/>
                        <mxPoint x="1879.56" y="927.9699999999998" as="sourcePoint"/>
                        <Array as="points">
                            <mxPoint x="1880" y="926.97"/>
                        </Array>
                    </mxGeometry>
                </mxCell>
                <mxCell id="327" style="edgeStyle=orthogonalEdgeStyle;rounded=0;orthogonalLoop=1;jettySize=auto;html=1;exitX=0.45;exitY=0;exitDx=0;exitDy=0;exitPerimeter=0;strokeWidth=2;" edge="1" parent="1">
                    <mxGeometry relative="1" as="geometry">
                        <Array as="points">
                            <mxPoint x="1967" y="839.97"/>
                        </Array>
                        <mxPoint x="1966.4999999999995" y="892.9699999999998" as="sourcePoint"/>
                        <mxPoint x="1855.0000000000005" y="840.0044827586207" as="targetPoint"/>
                    </mxGeometry>
                </mxCell>
                <mxCell id="328" style="edgeStyle=orthogonalEdgeStyle;rounded=0;orthogonalLoop=1;jettySize=auto;html=1;entryX=0.993;entryY=0.5;entryDx=0;entryDy=0;entryPerimeter=0;exitX=1;exitY=0;exitDx=0;exitDy=0;exitPerimeter=0;strokeWidth=2;" edge="1" parent="1">
                    <mxGeometry relative="1" as="geometry">
                        <mxPoint x="1923.79" y="601.9700000000003" as="targetPoint"/>
                        <mxPoint x="2005.0000000000005" y="591.9700000000003" as="sourcePoint"/>
                        <Array as="points">
                            <mxPoint x="2005" y="601.97"/>
                        </Array>
                    </mxGeometry>
                </mxCell>
                <mxCell id="329" style="edgeStyle=orthogonalEdgeStyle;rounded=0;orthogonalLoop=1;jettySize=auto;html=1;entryX=0.124;entryY=0.5;entryDx=0;entryDy=0;entryPerimeter=0;strokeWidth=2;" edge="1" parent="1">
                    <mxGeometry relative="1" as="geometry">
                        <Array as="points">
                            <mxPoint x="1800" y="509.96999999999997"/>
                        </Array>
                        <mxPoint x="1800.034482758621" y="581.9700000000003" as="sourcePoint"/>
                        <mxPoint x="1844.44" y="509.9700000000002" as="targetPoint"/>
                    </mxGeometry>
                </mxCell>
                <mxCell id="330" style="edgeStyle=orthogonalEdgeStyle;rounded=0;orthogonalLoop=1;jettySize=auto;html=1;entryX=-0.021;entryY=0.494;entryDx=0;entryDy=0;entryPerimeter=0;strokeWidth=2;" edge="1" parent="1">
                    <mxGeometry relative="1" as="geometry">
                        <mxPoint x="1897" y="510.00448275862067" as="sourcePoint"/>
                        <mxPoint x="1945.3200000000002" y="509.6099999999996" as="targetPoint"/>
                    </mxGeometry>
                </mxCell>
                <mxCell id="331" style="edgeStyle=orthogonalEdgeStyle;rounded=0;orthogonalLoop=1;jettySize=auto;html=1;strokeWidth=2;" edge="1" parent="1">
                    <mxGeometry relative="1" as="geometry">
                        <mxPoint x="2175" y="601.9700000000003" as="targetPoint"/>
                        <mxPoint x="2095" y="601.9700000000003" as="sourcePoint"/>
                    </mxGeometry>
                </mxCell>
                <mxCell id="332" style="edgeStyle=orthogonalEdgeStyle;rounded=0;orthogonalLoop=1;jettySize=auto;html=1;entryX=0.993;entryY=0.5;entryDx=0;entryDy=0;entryPerimeter=0;exitX=1;exitY=0;exitDx=0;exitDy=0;exitPerimeter=0;strokeWidth=2;" edge="1" parent="1">
                    <mxGeometry relative="1" as="geometry">
                        <mxPoint x="1463.79" y="431.9700000000002" as="targetPoint"/>
                        <mxPoint x="1557" y="421.97000000000025" as="sourcePoint"/>
                        <Array as="points">
                            <mxPoint x="1557" y="431.96999999999997"/>
                        </Array>
                    </mxGeometry>
                </mxCell>
                <mxCell id="333" value="" style="endArrow=classic;html=1;rounded=0;exitX=-0.014;exitY=0.443;exitDx=0;exitDy=0;exitPerimeter=0;strokeWidth=2;" edge="1" parent="1">
                    <mxGeometry width="50" height="50" relative="1" as="geometry">
                        <mxPoint x="1433.58" y="430.82999999999987" as="sourcePoint"/>
                        <mxPoint x="1395.0000000000005" y="430.82999999999987" as="targetPoint"/>
                    </mxGeometry>
                </mxCell>
                <mxCell id="335" style="edgeStyle=orthogonalEdgeStyle;rounded=0;orthogonalLoop=1;jettySize=auto;html=1;entryX=0.124;entryY=0.5;entryDx=0;entryDy=0;entryPerimeter=0;strokeWidth=2;" edge="1" parent="1">
                    <mxGeometry relative="1" as="geometry">
                        <mxPoint x="1394.44" y="339.97" as="targetPoint"/>
                        <Array as="points">
                            <mxPoint x="1340" y="339.97"/>
                        </Array>
                        <mxPoint x="1340.034482758621" y="411.97" as="sourcePoint"/>
                    </mxGeometry>
                </mxCell>
                <mxCell id="347" style="edgeStyle=orthogonalEdgeStyle;rounded=0;orthogonalLoop=1;jettySize=auto;html=1;entryX=1;entryY=0.5;entryDx=0;entryDy=0;dashed=1;endSize=6;curved=0;strokeColor=#FF0000;strokeWidth=2;" edge="1" parent="1" target="348">
                    <mxGeometry relative="1" as="geometry">
                        <Array as="points">
                            <mxPoint x="1983" y="813"/>
                        </Array>
                        <mxPoint x="1983" y="893" as="sourcePoint"/>
                    </mxGeometry>
                </mxCell>
                <mxCell id="348" value="&lt;font style=&quot;font-size: 20px;&quot;&gt;FC&lt;/font&gt;" style="ellipse;whiteSpace=wrap;html=1;" vertex="1" parent="1">
                    <mxGeometry x="1900" y="793" width="40" height="40" as="geometry"/>
                </mxCell>
                <mxCell id="349" style="edgeStyle=orthogonalEdgeStyle;rounded=0;orthogonalLoop=1;jettySize=auto;html=1;dashed=1;endSize=6;curved=0;strokeColor=#FF0000;strokeWidth=2;entryX=0.46;entryY=0.244;entryDx=0;entryDy=0;entryPerimeter=0;" edge="1" parent="1" source="348" target="258">
                    <mxGeometry relative="1" as="geometry">
                        <mxPoint x="1880" y="880" as="targetPoint"/>
                    </mxGeometry>
                </mxCell>
            </root>
        </mxGraphModel>
    </diagram>
</mxfile>